<mxfile host="app.diagrams.net" modified="2022-02-10T10:26:25.422Z" agent="5.0 (Windows NT 10.0; Win64; x64) AppleWebKit/537.36 (KHTML, like Gecko) Chrome/98.0.4758.82 Safari/537.36" etag="mGxtZwuCDZLRzGO3d1B9" version="16.5.5" type="github">
  <diagram id="C5RBs43oDa-KdzZeNtuy" name="Page-1">
    <mxGraphModel dx="1185" dy="1831" grid="1" gridSize="10" guides="1" tooltips="1" connect="1" arrows="1" fold="1" page="1" pageScale="1" pageWidth="827" pageHeight="1169" math="0" shadow="0">
      <root>
        <mxCell id="WIyWlLk6GJQsqaUBKTNV-0" />
        <mxCell id="WIyWlLk6GJQsqaUBKTNV-1" parent="WIyWlLk6GJQsqaUBKTNV-0" />
        <mxCell id="ZGS5r5O1rVqSmJZZ7aWP-0" value="CONTEXTE DU SYSTEME" style="swimlane;" vertex="1" parent="WIyWlLk6GJQsqaUBKTNV-1">
          <mxGeometry x="19" y="-740" width="790" height="580" as="geometry" />
        </mxCell>
        <mxCell id="ZGS5r5O1rVqSmJZZ7aWP-12" style="edgeStyle=orthogonalEdgeStyle;rounded=0;orthogonalLoop=1;jettySize=auto;html=1;exitX=0.031;exitY=1.012;exitDx=0;exitDy=0;exitPerimeter=0;" edge="1" parent="ZGS5r5O1rVqSmJZZ7aWP-0" source="ZGS5r5O1rVqSmJZZ7aWP-2" target="ZGS5r5O1rVqSmJZZ7aWP-11">
          <mxGeometry relative="1" as="geometry" />
        </mxCell>
        <mxCell id="ZGS5r5O1rVqSmJZZ7aWP-24" style="edgeStyle=orthogonalEdgeStyle;rounded=0;orthogonalLoop=1;jettySize=auto;html=1;exitX=0.391;exitY=1.003;exitDx=0;exitDy=0;exitPerimeter=0;" edge="1" parent="ZGS5r5O1rVqSmJZZ7aWP-0" source="ZGS5r5O1rVqSmJZZ7aWP-2" target="ZGS5r5O1rVqSmJZZ7aWP-22">
          <mxGeometry relative="1" as="geometry" />
        </mxCell>
        <mxCell id="ZGS5r5O1rVqSmJZZ7aWP-26" style="edgeStyle=orthogonalEdgeStyle;rounded=0;orthogonalLoop=1;jettySize=auto;html=1;entryX=0;entryY=0.5;entryDx=0;entryDy=0;" edge="1" parent="ZGS5r5O1rVqSmJZZ7aWP-0" source="ZGS5r5O1rVqSmJZZ7aWP-2" target="ZGS5r5O1rVqSmJZZ7aWP-25">
          <mxGeometry relative="1" as="geometry" />
        </mxCell>
        <mxCell id="ZGS5r5O1rVqSmJZZ7aWP-28" style="edgeStyle=orthogonalEdgeStyle;rounded=0;orthogonalLoop=1;jettySize=auto;html=1;entryX=0.5;entryY=0;entryDx=0;entryDy=0;exitX=0.895;exitY=1.017;exitDx=0;exitDy=0;exitPerimeter=0;" edge="1" parent="ZGS5r5O1rVqSmJZZ7aWP-0" source="ZGS5r5O1rVqSmJZZ7aWP-2" target="ZGS5r5O1rVqSmJZZ7aWP-27">
          <mxGeometry relative="1" as="geometry" />
        </mxCell>
        <mxCell id="ZGS5r5O1rVqSmJZZ7aWP-2" value="SYSTEME AUTOMATIQUE DE COMPTAGE ET DE RENDU DE LA MONAIE" style="rounded=1;whiteSpace=wrap;html=1;fillColor=#f8cecc;strokeColor=#b85450;" vertex="1" parent="ZGS5r5O1rVqSmJZZ7aWP-0">
          <mxGeometry x="185" y="280" width="420" height="30" as="geometry" />
        </mxCell>
        <mxCell id="ZGS5r5O1rVqSmJZZ7aWP-1" value="DIFFERENTS ACTEURS" style="rounded=1;whiteSpace=wrap;html=1;fillColor=#fff2cc;strokeColor=#d6b656;" vertex="1" parent="ZGS5r5O1rVqSmJZZ7aWP-0">
          <mxGeometry x="339" y="170" width="120" height="36" as="geometry" />
        </mxCell>
        <mxCell id="ZGS5r5O1rVqSmJZZ7aWP-8" style="edgeStyle=orthogonalEdgeStyle;rounded=0;orthogonalLoop=1;jettySize=auto;html=1;entryX=0;entryY=0.5;entryDx=0;entryDy=0;" edge="1" parent="ZGS5r5O1rVqSmJZZ7aWP-0" source="ZGS5r5O1rVqSmJZZ7aWP-5" target="ZGS5r5O1rVqSmJZZ7aWP-1">
          <mxGeometry relative="1" as="geometry" />
        </mxCell>
        <mxCell id="ZGS5r5O1rVqSmJZZ7aWP-5" value="CAISSIERE" style="shape=umlActor;verticalLabelPosition=bottom;verticalAlign=top;html=1;outlineConnect=0;" vertex="1" parent="ZGS5r5O1rVqSmJZZ7aWP-0">
          <mxGeometry x="170" y="70" width="40" height="74" as="geometry" />
        </mxCell>
        <mxCell id="ZGS5r5O1rVqSmJZZ7aWP-9" style="edgeStyle=orthogonalEdgeStyle;rounded=0;orthogonalLoop=1;jettySize=auto;html=1;entryX=1;entryY=0.5;entryDx=0;entryDy=0;" edge="1" parent="ZGS5r5O1rVqSmJZZ7aWP-0" source="ZGS5r5O1rVqSmJZZ7aWP-6" target="ZGS5r5O1rVqSmJZZ7aWP-1">
          <mxGeometry relative="1" as="geometry" />
        </mxCell>
        <mxCell id="ZGS5r5O1rVqSmJZZ7aWP-6" value="CLIENT" style="shape=umlActor;verticalLabelPosition=bottom;verticalAlign=top;html=1;outlineConnect=0;" vertex="1" parent="ZGS5r5O1rVqSmJZZ7aWP-0">
          <mxGeometry x="630" y="70" width="40" height="76" as="geometry" />
        </mxCell>
        <mxCell id="ZGS5r5O1rVqSmJZZ7aWP-19" style="edgeStyle=orthogonalEdgeStyle;rounded=0;orthogonalLoop=1;jettySize=auto;html=1;entryX=0.25;entryY=0;entryDx=0;entryDy=0;exitX=0.105;exitY=1.011;exitDx=0;exitDy=0;exitPerimeter=0;" edge="1" parent="ZGS5r5O1rVqSmJZZ7aWP-0" source="ZGS5r5O1rVqSmJZZ7aWP-11" target="ZGS5r5O1rVqSmJZZ7aWP-18">
          <mxGeometry relative="1" as="geometry">
            <Array as="points">
              <mxPoint x="76" y="481" />
            </Array>
          </mxGeometry>
        </mxCell>
        <mxCell id="ZGS5r5O1rVqSmJZZ7aWP-11" value="CONTRAINTES ENVIRONNEMENTALES" style="rounded=1;whiteSpace=wrap;html=1;fillColor=#fff2cc;strokeColor=#d6b656;" vertex="1" parent="ZGS5r5O1rVqSmJZZ7aWP-0">
          <mxGeometry x="60" y="420" width="150" height="60" as="geometry" />
        </mxCell>
        <mxCell id="ZGS5r5O1rVqSmJZZ7aWP-16" value="PETITES SURFACES&amp;nbsp;&lt;br&gt;EX : BOULANGERIE, EPICERIE, ETC." style="rounded=0;whiteSpace=wrap;html=1;fillColor=#dae8fc;strokeColor=#6c8ebf;" vertex="1" parent="ZGS5r5O1rVqSmJZZ7aWP-0">
          <mxGeometry x="20" y="270" width="140" height="60" as="geometry" />
        </mxCell>
        <mxCell id="ZGS5r5O1rVqSmJZZ7aWP-17" style="edgeStyle=orthogonalEdgeStyle;rounded=0;orthogonalLoop=1;jettySize=auto;html=1;" edge="1" parent="ZGS5r5O1rVqSmJZZ7aWP-0">
          <mxGeometry relative="1" as="geometry">
            <mxPoint x="80" y="332" as="targetPoint" />
            <mxPoint x="80" y="420" as="sourcePoint" />
            <Array as="points">
              <mxPoint x="80" y="420" />
            </Array>
          </mxGeometry>
        </mxCell>
        <mxCell id="ZGS5r5O1rVqSmJZZ7aWP-18" value="NE DOIS PRENDRE TROP DE PLACE SUR LE COMPTOIR" style="rounded=0;whiteSpace=wrap;html=1;fillColor=#dae8fc;strokeColor=#6c8ebf;" vertex="1" parent="ZGS5r5O1rVqSmJZZ7aWP-0">
          <mxGeometry x="41" y="510" width="140" height="60" as="geometry" />
        </mxCell>
        <mxCell id="ZGS5r5O1rVqSmJZZ7aWP-4" style="edgeStyle=orthogonalEdgeStyle;rounded=0;orthogonalLoop=1;jettySize=auto;html=1;entryX=0.473;entryY=1.012;entryDx=0;entryDy=0;entryPerimeter=0;" edge="1" parent="ZGS5r5O1rVqSmJZZ7aWP-0" source="ZGS5r5O1rVqSmJZZ7aWP-2" target="ZGS5r5O1rVqSmJZZ7aWP-1">
          <mxGeometry relative="1" as="geometry">
            <mxPoint x="396" y="220" as="targetPoint" />
          </mxGeometry>
        </mxCell>
        <mxCell id="ZGS5r5O1rVqSmJZZ7aWP-22" value="SYSTEME DE RECHARGE EXTERNE" style="rounded=1;whiteSpace=wrap;html=1;fillColor=#fff2cc;strokeColor=#d6b656;" vertex="1" parent="ZGS5r5O1rVqSmJZZ7aWP-0">
          <mxGeometry x="240" y="440" width="219" height="20" as="geometry" />
        </mxCell>
        <mxCell id="ZGS5r5O1rVqSmJZZ7aWP-25" value="&#xa;&#xa;&lt;span style=&quot;color: rgb(0, 0, 0); font-family: helvetica; font-size: 12px; font-style: normal; font-weight: 400; letter-spacing: normal; text-align: center; text-indent: 0px; text-transform: none; word-spacing: 0px; background-color: rgb(248, 249, 250); display: inline; float: none;&quot;&gt;LA MACHINE CONNAIT EXACTEMENT LE NOMBRE DE PIECES QU&#39;ELLE CONTIENT&lt;/span&gt;&#xa;&#xa;" style="rounded=1;whiteSpace=wrap;html=1;fillColor=#fff2cc;strokeColor=#d6b656;" vertex="1" parent="ZGS5r5O1rVqSmJZZ7aWP-0">
          <mxGeometry x="651" y="248.75" width="120" height="92.5" as="geometry" />
        </mxCell>
        <mxCell id="ZGS5r5O1rVqSmJZZ7aWP-27" value="LE RENDU SE FAIT DES LA DEMANDE DE L&#39;UTILISATEUR" style="rounded=1;whiteSpace=wrap;html=1;fillColor=#fff2cc;strokeColor=#d6b656;" vertex="1" parent="ZGS5r5O1rVqSmJZZ7aWP-0">
          <mxGeometry x="501" y="427.5" width="120" height="45" as="geometry" />
        </mxCell>
      </root>
    </mxGraphModel>
  </diagram>
</mxfile>
